
<svg width="127" height="27" viewBox="0 0 127 27" fill="none" xmlns="http://www.w3.org/2000/svg">
  <path d="M36.2109 18.6943C35.5742 19.0446 34.888 19.3023 34.1524 19.4675C33.4168 19.6326 32.6814 19.7152 31.946 19.7152C30.8926 19.7152 29.9219 19.5663 29.0339 19.2687C28.1458 18.9711 27.3691 18.5483 26.7041 18.0001C26.0391 17.4519 25.5166 16.7785 25.1367 15.9797C24.7568 15.1809 24.5669 14.282 24.5669 13.283C24.5669 12.284 24.7568 11.3764 25.1367 10.5601C25.5166 9.74391 26.0391 9.05591 26.7041 8.4963C27.3691 7.93668 28.1458 7.51387 29.0339 7.22768C29.9219 6.94148 30.8926 6.79836 31.946 6.79836C32.6267 6.79836 33.3075 6.87269 33.9883 7.02136C34.6692 7.17002 35.3045 7.40586 35.8949 7.72887C36.3115 7.95917 36.6914 8.26174 37.0348 8.64772C37.3779 9.03367 37.6666 9.45647 37.9005 9.9161C38.1344 10.3757 38.2968 10.8515 38.3878 11.3434C38.4788 11.8353 38.5241 12.3272 38.5241 12.8192C38.5241 13.1422 38.5059 13.4652 38.4697 13.7885C38.4333 14.1119 38.3698 14.4348 38.2786 14.7582H28.8398C28.9307 15.4488 29.2288 15.9564 29.7343 16.2812C30.2397 16.6061 30.8653 16.7678 31.6104 16.7678C32.0625 16.7678 32.4876 16.7018 32.8857 16.5697C33.2839 16.4376 33.6366 16.2645 33.9435 16.0506L36.2109 18.6943ZM31.7739 9.80106C31.1263 9.80106 30.5872 9.95527 30.1533 10.2636C29.7196 10.5721 29.4304 11.0353 29.2875 11.6534H33.986C33.9137 11.0024 33.679 10.5351 33.2839 10.2511C32.8885 9.9671 32.3828 9.80106 31.7739 9.80106Z" fill="#9B87F5"/>
  <path d="M40.958 0.283524H45.0146V19.2646H40.958V0.283524Z" fill="#9B87F5"/>
  <path d="M56.5235 10.0805C55.9511 9.88108 55.3696 9.73258 54.7786 9.63498C54.1875 9.53738 53.6456 9.48857 53.1533 9.48857C52.7191 9.48857 52.3029 9.52691 51.9043 9.60359C51.5056 9.68025 51.2437 9.83972 51.1187 10.0756V19.2646H47.0962V7.24883H50.9092L50.9961 8.71591C51.3585 8.17931 51.8236 7.75115 52.3914 7.43177C52.9594 7.11237 53.5684 6.95267 54.2188 6.95267C54.5084 6.95267 54.7984 6.97516 55.0879 7.02045C55.3773 7.06573 55.7036 7.13101 56.0664 7.21596L56.5235 10.0805Z" fill="#9B87F5"/>
  <path d="M63.2251 19.7152C62.2183 19.7152 61.285 19.5742 60.4241 19.2935C59.5635 19.0124 58.8134 18.6118 58.1748 18.0912C57.5361 17.5711 57.0326 16.9402 56.665 16.1992C56.2974 15.4581 56.1133 14.6351 56.1133 13.729C56.1133 12.823 56.2974 11.995 56.665 11.2459C57.0326 10.4966 57.5361 9.86145 58.1748 9.33997C58.8134 8.81851 59.5635 8.41783 60.4241 8.13774C61.285 7.85771 62.2183 7.71753 63.2251 7.71753C64.2319 7.71753 65.1651 7.85771 66.026 8.13774C66.8867 8.41783 67.6366 8.81851 68.2754 9.33997C68.9139 9.86145 69.4175 10.4966 69.7852 11.2459C70.1525 11.995 70.3364 12.823 70.3364 13.729C70.3364 14.6351 70.1525 15.4581 69.7852 16.1992C69.4175 16.9402 68.9139 17.5711 68.2754 18.0912C67.6366 18.6118 66.8867 19.0124 66.026 19.2935C65.1651 19.5742 64.2319 19.7152 63.2251 19.7152ZM63.2251 16.5981C63.8999 16.5981 64.4688 16.4018 64.9312 16.0095C65.394 15.6169 65.6255 14.931 65.6255 13.952C65.6255 12.973 65.394 12.2911 64.9312 11.9C64.4688 11.509 63.8999 11.3128 63.2251 11.3128C62.5503 11.3128 61.9814 11.509 61.519 11.9C61.0562 12.2911 60.8247 12.973 60.8247 13.952C60.8247 14.931 61.0562 15.6169 61.519 16.0095C61.9814 16.4018 62.5503 16.5981 63.2251 16.5981Z" fill="#9B87F5"/>
  <path d="M78.2617 19.7152C77.2549 19.7152 76.3218 19.5742 75.4607 19.2935C74.6001 19.0124 73.8501 18.6118 73.2114 18.0912C72.5728 17.5711 72.0693 16.9402 71.7017 16.1992C71.3341 15.4581 71.1499 14.6351 71.1499 13.729C71.1499 12.823 71.3341 11.995 71.7017 11.2459C72.0693 10.4966 72.5728 9.86145 73.2114 9.33997C73.8501 8.81851 74.6001 8.41783 75.4607 8.13774C76.3218 7.85771 77.2549 7.71753 78.2617 7.71753C79.2686 7.71753 80.2017 7.85771 81.0625 8.13774C81.9236 8.41783 82.6736 8.81851 83.312 9.33997C83.9507 9.86145 84.4541 10.4966 84.8218 11.2459C85.1892 11.995 85.373 12.823 85.373 13.729C85.373 14.6351 85.1892 15.4581 84.8218 16.1992C84.4541 16.9402 83.9507 17.5711 83.312 18.0912C82.6736 18.6118 81.9236 19.0124 81.0625 19.2935C80.2017 19.5742 79.2686 19.7152 78.2617 19.7152ZM78.2617 16.5981C78.9365 16.5981 79.5054 16.4018 79.9678 16.0095C80.4307 15.6169 80.6621 14.931 80.6621 13.952C80.6621 12.973 80.4307 12.2911 79.9678 11.9C79.5054 11.509 78.9365 11.3128 78.2617 11.3128C77.5869 11.3128 77.0181 11.509 76.5557 11.9C76.0928 12.2911 75.8613 12.973 75.8613 13.952C75.8613 14.931 76.0928 15.6169 76.5557 16.0095C77.0181 16.4018 77.5869 16.5981 78.2617 16.5981Z" fill="#9B87F5"/>
  <path d="M89.2046 11.4865C89.3137 11.1958 89.4454 10.9218 89.5996 10.6649C89.7534 10.4081 89.9551 10.1835 90.2036 9.9902C90.4526 9.79682 90.7695 9.64255 91.1553 9.52777C91.5405 9.41293 92.0166 9.35468 92.5845 9.35468C93.2041 9.35468 93.7676 9.47256 94.2759 9.7081C94.7842 9.94388 95.2109 10.2785 95.5571 10.7119C95.9028 11.1458 96.1674 11.6683 96.3511 12.2802C96.5347 12.8922 96.6265 13.5698 96.6265 14.3132V19.2646H92.5928V14.7378C92.5928 14.2168 92.5186 13.8161 92.3699 13.5364C92.2217 13.2566 92.0059 13.0599 91.7236 12.9451C91.4419 12.8303 91.0815 12.773 90.6431 12.773C90.3604 12.773 90.0933 12.8113 89.8413 12.8877C89.5889 12.9642 89.3755 13.0764 89.2006 13.2239C89.0254 13.3715 88.8892 13.5463 88.7935 13.7494C88.6978 13.9522 88.6484 14.1849 88.646 14.4474L88.646 19.2646H84.6123V7.24883H88.4253L89.2046 11.4865Z" fill="#9B87F5"/>
  <path d="M110.023 19.2646V15.2563L109.827 15.2481L107.856 13.4094L107.869 19.2646H104.334V13.4094L102.364 15.2481L102.167 15.2564V19.2646H98.1333V0.283524H102.167V11.0536L106.09 7.24883H110.834L106.934 11.0536L111.001 15.2481L110.023 19.2646Z" fill="#9B87F5"/>
  <path d="M119.543 19.2646C118.708 19.5784 117.843 19.8068 116.946 19.9492C116.049 20.0925 115.138 20.1633 114.215 20.1633C113.095 20.1633 112.057 19.9981 111.105 19.6676C110.151 19.3371 109.308 18.8714 108.575 18.2702C107.841 17.668 107.265 16.9494 106.845 16.1139C106.425 15.2785 106.215 14.3465 106.215 13.3177C106.215 12.2891 106.414 11.3571 106.812 10.5217C107.21 9.68626 107.754 8.96767 108.443 8.36647C109.133 7.76528 109.943 7.30412 110.876 6.983C111.81 6.66184 112.818 6.5 113.901 6.5C114.774 6.5 115.624 6.5996 116.451 6.79889C117.275 6.99818 118.041 7.30415 118.748 7.7164C119.455 8.12866 120.032 8.64235 120.48 9.25687C120.927 9.87129 121.151 10.5877 121.151 11.4063C121.151 11.8683 121.096 12.3239 120.985 12.7725C120.875 13.221 120.715 13.6486 120.505 14.0555L115.805 13.1704C115.896 12.7329 115.873 12.3747 115.739 12.0952C115.604 11.8156 115.391 11.6062 115.099 11.4673C114.807 11.3282 114.448 11.259 114.023 11.259C113.598 11.259 113.219 11.3323 112.886 11.4785C112.553 11.625 112.278 11.8325 112.064 12.101C111.847 12.3694 111.685 12.6854 111.575 13.0492C111.465 13.4128 111.409 13.8051 111.409 14.2259C111.409 15.115 111.644 15.8118 112.113 16.317C112.582 16.8221 113.231 17.0748 114.061 17.0748C114.395 17.0748 114.699 17.0258 114.975 16.9275C115.251 16.8293 115.498 16.6943 115.716 16.5226L119.543 19.2646Z" fill="#9B87F5"/>
  <path d="M17.3394 14.2842C17.0394 14.3842 16.7394 14.4842 16.4394 14.5842C15.5561 14.8508 15.9228 14.7175 15.8394 15.0842C15.7228 15.5842 16.6394 15.5175 16.9394 15.5342C17.8394 15.5675 18.5394 15.3175 19.4061 15.2508C21.3894 15.1175 23.9561 15.6508 25.5228 14.1508C26.4394 13.2675 25.8728 11.5842 26.3061 10.5675C27.2561 8.2175 30.3894 8.0675 29.9394 5.53416C29.8228 4.8175 29.4394 4.33416 28.9394 3.90083C28.2561 3.31749 27.5728 2.80083 26.7061 2.4175C24.5061 1.3175 22.0061 1.2175 19.6228 1.18416C17.8061 1.15083 15.9728 1.2175 14.1561 1.40083C12.3894 1.58416 10.6228 1.9675 8.9894 2.6675C7.7561 3.1675 6.5061 3.85083 5.5894 4.85083C4.6561 5.8675 4.09277 7.2175 3.9394 8.6175C3.75606 10.3508 4.3061 12.2342 5.5061 13.5675C6.0561 14.1675 6.7228 14.6342 7.4561 14.9508C8.82277 15.5175 10.3061 15.7008 11.7728 15.6175C13.3728 15.5342 14.9228 15.2508 16.4728 14.8342C16.8061 14.7342 17.2728 14.5675 17.3394 14.2842Z" fill="#33C3F0"/>
  <path d="M17.7953 23.6508C17.4953 23.7508 17.1953 23.8508 16.8953 23.9508C16.0119 24.2175 16.3786 24.0842 16.2953 24.4508C16.1786 24.9508 17.0953 24.8842 17.3953 24.9008C18.2953 24.9342 18.9953 24.6842 19.8619 24.6175C21.8453 24.4842 24.4119 25.0175 25.9786 23.5175C26.8953 22.6342 26.3286 20.9508 26.7619 19.9342C27.7119 17.5842 30.8453 17.4342 30.3953 14.9008C30.2786 14.1842 29.8953 13.7008 29.3953 13.2675C28.7119 12.6842 28.0286 12.1675 27.1619 11.7842C24.9619 10.6842 22.4619 10.5842 20.0786 10.5508C18.2619 10.5175 16.4286 10.5842 14.6119 10.7675C12.8453 10.9508 11.0786 11.3342 9.4453 12.0342C8.2119 12.5342 6.9619 13.2175 6.0453 14.2175C5.1119 15.2342 4.54857 16.5842 4.39524 17.9842C4.21191 19.7175 4.76191 21.6008 5.9619 22.9342C6.5119 23.5342 7.1786 24.0008 7.9119 24.3175C9.27857 24.8842 10.7619 25.0675 12.2286 24.9842C13.8286 24.9008 15.3786 24.6175 16.9286 24.2008C17.2619 24.1008 17.7286 23.9342 17.7953 23.6508Z" fill="#9B87F5"/>
</svg>
